<svg height="512pt" viewBox="-96 0 512 512" width="512pt" xmlns="http://www.w3.org/2000/svg"><path d="m316 316c-33.136719 0-60-26.863281-60-60s26.863281-60 60-60c1.347656 0 2.675781.058594 4 .148438v-121.648438h-120v-34.5c0-22.089844-17.910156-40-40-40s-40 17.910156-40 40v34.5h-120v121.648438c1.324219-.089844 2.652344-.148438 4-.148438 33.136719 0 60 26.863281 60 60s-26.863281 60-60 60c-1.347656 0-2.675781-.058594-4-.148438v121.648438h120v34.5c0 22.089844 17.910156 40 40 40s40-17.910156 40-40v-34.5h120v-121.648438c-1.324219.089844-2.652344.148438-4 .148438zm0 0" fill="#00c1fd"/><path d="m316 196c1.347656 0 2.675781.058594 4 .148438v-121.648438h-120v-34.5c0-22.089844-17.910156-40-40-40v512c22.089844 0 40-17.910156 40-40v-34.5h120v-121.648438c-1.324219.089844-2.652344.148438-4 .148438-33.136719 0-60-26.863281-60-60s26.863281-60 60-60zm0 0" fill="#08a8ee"/></svg>