<svg height="464pt" viewBox="0 0 464 464" width="464pt" xmlns="http://www.w3.org/2000/svg"><g fill="#9bc9ff"><path d="m440 8h-208v82.238281c9.277344-6.785156 20.507812-10.378906 32-10.238281 26.480469 0 48 17.921875 48 40s-21.519531 40-48 40c-11.492188.140625-22.722656-3.453125-32-10.238281v82.238281h82.238281c-6.785156 9.277344-10.378906 20.507812-10.238281 32 0 26.480469 17.921875 48 40 48s40-21.519531 40-48c.140625-11.492188-3.453125-22.722656-10.238281-32h82.238281v-208c-.027344-8.824219-7.175781-15.972656-16-16zm0 0"/><path d="m200 384c-26.480469 0-48-17.921875-48-40s21.519531-40 48-40c11.492188-.140625 22.722656 3.453125 32 10.238281v-82.238281h-82.238281c6.785156-9.277344 10.378906-20.507812 10.238281-32 0-26.480469-17.921875-48-40-48s-40 21.519531-40 48c-.140625 11.492188 3.453125 22.722656 10.238281 32h-82.238281v208c.027344 8.824219 7.175781 15.972656 16 16h208v-82.238281c-9.277344 6.785156-20.507812 10.378906-32 10.238281zm0 0"/><path d="m384 264c0 26.480469-17.921875 48-40 48s-40-21.519531-40-48c-.140625-11.492188 3.453125-22.722656 10.238281-32h-82.238281v82.238281c-9.277344-6.785156-20.507812-10.378906-32-10.238281-26.480469 0-48 17.921875-48 40s21.519531 40 48 40c11.492188.140625 22.722656-3.453125 32-10.238281v82.238281h208c8.824219-.027344 15.972656-7.175781 16-16v-208h-82.238281c6.785156 9.277344 10.378906 20.507812 10.238281 32zm0 0"/></g><path d="m440 0h-416c-13.253906 0-24 10.746094-24 24v416c0 13.253906 10.746094 24 24 24h416c13.253906 0 24-10.746094 24-24v-416c0-13.253906-10.746094-24-24-24zm8 24v200h-74.238281c-3.03125 0-5.800781 1.710938-7.15625 4.421875s-1.0625 5.953125.753906 8.378906c5.742187 7.894531 8.773437 17.4375 8.640625 27.199219 0 22.054688-14.351562 40-32 40s-32-17.945312-32-40c-.136719-9.761719 2.886719-19.300781 8.625-27.199219 1.816406-2.425781 2.109375-5.667969.753906-8.378906-1.355468-2.710937-4.125-4.421875-7.15625-4.421875h-74.222656v-60.617188c7.628906 3.070313 15.777344 4.636719 24 4.617188 30.878906 0 56-21.527344 56-48s-25.121094-48-56-48c-8.222656-.019531-16.371094 1.546875-24 4.617188v-60.617188h200c4.417969 0 8 3.582031 8 8zm-432 0c0-4.417969 3.582031-8 8-8h200v74.238281c0 3.03125 1.710938 5.800781 4.421875 7.15625s5.953125 1.0625 8.378906-.753906c7.898438-5.738281 17.4375-8.765625 27.199219-8.640625 22.054688 0 40 14.351562 40 32s-17.945312 32-40 32c-9.757812.132812-19.300781-2.894531-27.199219-8.625-2.425781-1.816406-5.667969-2.109375-8.378906-.753906-2.710937 1.355468-4.421875 4.125-4.421875 7.15625v74.222656h-60.617188c3.070313-7.628906 4.636719-15.777344 4.617188-24 0-30.871094-21.527344-56-48-56s-48 25.128906-48 56c-.019531 8.222656 1.546875 16.371094 4.617188 24h-60.617188zm0 416v-200h74.238281c3.03125 0 5.800781-1.710938 7.15625-4.421875s1.0625-5.953125-.753906-8.378906c-5.742187-7.894531-8.773437-17.4375-8.640625-27.199219 0-22.054688 14.351562-40 32-40s32 17.945312 32 40c.136719 9.761719-2.886719 19.300781-8.625 27.199219-1.816406 2.425781-2.109375 5.667969-.753906 8.378906 1.355468 2.710937 4.125 4.421875 7.15625 4.421875h74.222656v60.617188c-7.628906-3.070313-15.777344-4.636719-24-4.617188-30.878906 0-56 21.527344-56 48s25.121094 48 56 48c8.222656.019531 16.371094-1.546875 24-4.617188v60.617188h-200c-4.417969 0-8-3.582031-8-8zm432 0c0 4.417969-3.582031 8-8 8h-200v-74.238281c0-3.03125-1.710938-5.800781-4.421875-7.15625s-5.953125-1.0625-8.378906.753906c-7.898438 5.738281-17.4375 8.765625-27.199219 8.640625-22.054688 0-40-14.351562-40-32s17.945312-32 40-32c9.757812-.132812 19.300781 2.894531 27.199219 8.625 2.425781 1.816406 5.667969 2.109375 8.378906.753906 2.710937-1.355468 4.421875-4.125 4.421875-7.15625v-74.222656h60.617188c-3.070313 7.628906-4.636719 15.777344-4.617188 24 0 30.871094 21.527344 56 48 56s48-25.128906 48-56c.019531-8.222656-1.546875-16.371094-4.617188-24h60.617188zm0 0" fill="#1e81ce"/></svg>